<?xml version="1.0" encoding="UTF-8" standalone="no"?>
<svg
   xmlns:dc="http://purl.org/dc/elements/1.1/"
   xmlns:cc="http://creativecommons.org/ns#"
   xmlns:rdf="http://www.w3.org/1999/02/22-rdf-syntax-ns#"
   xmlns:svg="http://www.w3.org/2000/svg"
   xmlns="http://www.w3.org/2000/svg"
   xmlns:sodipodi="http://sodipodi.sourceforge.net/DTD/sodipodi-0.dtd"
   xmlns:inkscape="http://www.inkscape.org/namespaces/inkscape"
   sodipodi:docname="skull-head.svg"
   inkscape:version="1.0beta1 (32d4812, 2019-09-19)"
   id="svg8"
   version="1.1"
   viewBox="0 0 210 297"
   height="297mm"
   width="210mm">
  <defs
     id="defs2" />
  <sodipodi:namedview
     inkscape:window-maximized="0"
     inkscape:window-y="23"
     inkscape:window-x="0"
     inkscape:window-height="907"
     inkscape:window-width="1696"
     showgrid="false"
     inkscape:document-rotation="0"
     inkscape:current-layer="layer1"
     inkscape:document-units="mm"
     inkscape:cy="392.13517"
     inkscape:cx="399.26407"
     inkscape:zoom="1.9714157"
     inkscape:pageshadow="2"
     inkscape:pageopacity="0.0"
     borderopacity="1.0"
     bordercolor="#666666"
     pagecolor="#ffffff"
     id="base" />
  <metadata
     id="metadata5">
    <rdf:RDF>
      <cc:Work
         rdf:about="">
        <dc:format>image/svg+xml</dc:format>
        <dc:type
           rdf:resource="http://purl.org/dc/dcmitype/StillImage" />
        <dc:title></dc:title>
      </cc:Work>
    </rdf:RDF>
  </metadata>
  <g
     id="layer1"
     inkscape:groupmode="layer"
     inkscape:label="Layer 1">
    <path
       inkscape:connector-curvature="0"
       id="path10"
       d="m 73.931806,108.43331 c -1.262034,-1.81644 -0.08547,-0.91523 -0.616099,-2.77244 -0.101711,-0.35598 -0.511632,-0.56896 -0.616098,-0.92415 -1.187235,-4.03659 -0.92415,-7.221692 -0.92415,-11.397817 0,-2.792114 -0.395425,-5.857388 0,-8.625377 0.324869,-2.274073 3.289401,-7.502948 4.31269,-9.549524 0.294039,-0.588079 1.04104,-0.804307 1.540245,-1.232196 1.208133,-1.035543 2.276602,-2.678547 3.696592,-3.388543 2.442218,-1.22111 5.403117,-1.903722 8.009279,-2.772442 1.974646,-0.658214 3.402457,-2.160984 5.236837,-2.772441 2.890226,-0.963409 6.320508,0 9.241478,0 5.067,0 10.23717,-0.400553 15.09441,0.924147 6.26692,1.709161 11.59886,5.96628 16.63465,9.857573 2.14075,1.654209 4.34385,3.281257 5.85294,5.544886 1.87737,2.816053 -0.13758,-0.104672 0.6161,2.156344 0.11707,0.351229 0.51868,0.566965 0.61609,0.924147 0.68568,2.514155 0.31661,7.176405 -1.23219,9.241475 -0.34852,0.46469 -0.97243,0.712658 -1.2322,1.232199 -0.0459,0.09184 0.0726,0.235439 0,0.308049 -0.0726,0.07261 -0.21621,-0.04592 -0.30805,0 -0.45854,0.229269 -0.82142,0.958345 -1.2322,1.232196 -2.49326,1.662171 -4.96907,2.524826 -6.77708,5.236834 -0.44927,0.67391 -0.11554,0.65469 -0.30805,1.2322 -0.17486,0.52459 -0.46418,1.00855 -0.6161,1.54024 -0.0564,0.19747 0.0919,0.43242 0,0.6161 -0.0459,0.0918 -0.28314,-0.0996 -0.30805,0 -0.0996,0.39847 0.0806,0.82944 0,1.2322 -0.0285,0.1424 -0.2431,0.17816 -0.30804,0.30805 -0.32472,0.64942 -0.10858,1.4582 -0.30805,2.15634 -0.15731,0.55059 -0.4348,0.99636 -0.6161,1.54025 -0.14896,0.44688 0.18445,4.12824 0,4.31269 -0.0726,0.0726 -0.23544,-0.0726 -0.30805,0 -0.0903,0.0903 -0.90601,1.22313 -0.92415,1.23219 -0.18368,0.0918 -0.42127,-0.0649 -0.6161,0 -0.27553,0.0918 -0.35632,0.48622 -0.61609,0.6161 -0.35061,0.17531 -0.89085,0.0805 -1.2322,0.30805 -0.93261,-0.76014 -0.52987,0.83792 -0.6161,0.92415 -0.22653,0.22653 -0.9285,0.69638 -1.2322,0.92415 -0.36737,0.27552 -0.90748,0.29138 -1.23219,0.6161 -0.56898,0.56897 -0.57956,2.04671 -0.92415,3.08049 -0.2606,0.7818 -0.007,1.52589 0.30805,2.15634 0.6161,1.2322 -0.6161,3.38854 0,4.62074 0.34163,0.68326 0.47859,1.9197 0.30805,2.77244 -0.12344,0.61717 -0.94541,0.94542 -1.2322,1.2322 -0.0726,0.0726 0.0918,0.26213 0,0.30805 -0.60113,0.30056 -2.18392,-1.73563 -2.46439,-2.15635 -0.2672,-0.40079 -0.0679,-1.4881 -0.30805,-1.84829 -0.52823,-0.79234 -3.56017,-0.43347 -4.31269,-0.30805 -1.57549,0.26258 -3.38854,1.53599 -3.38854,3.08049 0,0.46649 0.32947,1.51882 0.30805,1.54025 -0.71237,0.71236 -4.87314,-3.42382 -5.23684,-3.69659 -0.3387,-0.25403 -0.81705,-0.22502 -1.2322,-0.30805 -2.86082,-0.57217 -2.18503,-0.27936 -4.31268,1.84829 -0.902395,0.9024 -1.779039,3.19989 -2.772446,3.69659 -1.137936,0.56897 -2.387127,-2.38712 -3.080494,-3.08049 -1.460989,-1.46099 -2.912041,1.62447 -3.696589,1.2322 -1.345237,-0.67262 -2.103504,-1.79546 -3.080491,-2.77245 -0.35457,-0.35457 -2.26279,-0.25482 -2.772444,0 -0.239575,0.11979 -0.785281,0.75497 -0.924147,0.6161 -0.243787,-0.24378 -0.319112,-1.0837 -0.616098,-1.23219 -0.183685,-0.0918 -0.432414,0.0918 -0.616099,0 -0.09184,-0.0459 0.04592,-0.21621 0,-0.30805 -0.129884,-0.25977 -0.486214,-0.35633 -0.616098,-0.6161 -0.612952,-1.22591 1.232197,-3.61422 1.232197,-4.62074 0,-1.40682 0.341923,-3.32079 -0.30805,-4.62074 -0.06494,-0.12988 -0.205366,-0.20536 -0.308049,-0.30804 -0.205367,-0.41074 -0.470881,-0.79655 -0.616098,-1.2322 -0.101632,-0.3049 -0.0673,-0.99145 -0.308049,-1.2322 -0.201692,-0.20169 -0.711885,-0.19157 -0.924147,-0.6161 -0.385964,-0.77192 -1.8391,-2.76324 -2.464395,-3.38854 -0.286534,-0.28653 -1.197626,-0.54696 -1.540246,-1.23219 -0.150802,-0.30161 -0.453443,-0.59884 -0.616098,-0.92415 -0.09184,-0.18369 0.145217,-0.47089 0,-0.6161 -0.07261,-0.0726 -0.262128,0.0918 -0.308049,0 -0.09184,-0.18369 0.09184,-0.43241 0,-0.6161 -0.04592,-0.0918 -0.216207,0.0459 -0.308049,0 -0.588079,-0.29404 -1.014251,-0.8377 -1.540245,-1.2322 z"
       style="fill:none;stroke:#000000;stroke-width:0.264583px;stroke-linecap:butt;stroke-linejoin:miter;stroke-opacity:1" />
    <path
       inkscape:connector-curvature="0"
       id="path12"
       d="m 108.17311,92.067929 c 0.34266,-1.212852 1.14447,-2.083951 2.01314,-2.952617 0.33518,-0.335175 0.55961,-0.788784 0.93947,-1.073677 1.66313,-1.247346 3.79495,-0.613212 5.63681,-1.073679 0.2745,-0.06862 0.52906,-0.207042 0.80526,-0.26842 0.80655,-0.179234 1.83768,0 2.6842,0 1.37489,0 2.92743,-0.17091 4.29471,0 0.61474,0.07684 1.2774,0.416531 1.87894,0.53684 1.51026,0.302051 5.331,0.290449 5.90523,2.013145 0.10227,0.306811 -0.0628,0.759606 0,1.07368 0.0561,0.280471 0.24026,0.621334 0.13421,0.939469 -0.25101,0.753036 -0.60967,1.164717 -1.07368,1.744728 -0.14885,0.186069 -0.36098,0.629402 -0.53684,0.805257 -0.39966,0.399667 -0.17482,-0.200723 -0.53683,0.40263 -0.0728,0.121309 -0.0557,0.284919 -0.13421,0.40263 -0.28493,0.427389 -1.17761,0.848611 -1.3421,1.342098 -0.18873,0.566161 -0.20953,1.754347 -0.13421,2.281566 0.0325,0.227423 0.18664,0.543113 0.13421,0.805259 -0.0639,0.319363 -0.21488,0.618213 -0.26842,0.93947 -0.19474,1.168392 -0.24695,1.148842 -1.3421,1.878932 -0.23075,0.15384 -0.66875,0.24794 -0.93947,0.40263 -1.82956,1.04546 -3.68722,1.07368 -5.77102,1.07368 -0.65587,0 -1.64839,0.12664 -2.28157,0 -0.15817,-0.0316 -0.24614,-0.2293 -0.40263,-0.26842 -0.217,-0.0543 -0.44961,0.0316 -0.67105,0 -0.59723,-0.0853 -1.26661,-0.24954 -1.87894,-0.40263 -0.96308,-0.24077 -1.78165,-0.86943 -2.68419,-1.20788 -0.21359,-0.0801 -0.45464,-0.0621 -0.67105,-0.13421 -0.54319,-0.18107 -1.65676,-1.411471 -1.87894,-1.744732 -0.11241,-0.168616 -0.44311,-0.28547 -0.53684,-0.40263 -0.19505,-0.243811 -1.02381,-1.645002 -1.20788,-2.013145 -0.0409,-0.08175 -0.25833,-0.764884 -0.26842,-0.80526 -0.0493,-0.197239 -0.12419,-1.352124 0,-1.476309 0.17894,-0.178945 0.13421,0.223684 0.13421,-0.13421 0,-1.027591 -0.26096,-1.640379 0,-2.684195 z"
       style="fill:none;stroke:#000000;stroke-width:0.264583px;stroke-linecap:butt;stroke-linejoin:miter;stroke-opacity:1" />
    <path
       inkscape:connector-curvature="0"
       id="path14"
       d="m 95.825804,88.712684 c -2.479638,-1.281631 -5.072089,-2.549988 -7.918379,-2.549988 -0.441267,0 -1.226367,-0.192074 -1.610519,0 -0.05659,0.02829 -0.07283,0.118867 -0.13421,0.13421 -0.317116,0.07928 -0.758798,-0.06298 -1.073679,0 -0.158165,0.03163 -0.249605,0.217414 -0.402627,0.26842 -0.35466,0.118221 -0.733263,0.154948 -1.073679,0.26842 -0.85422,0.284739 -1.597115,0.962969 -2.281568,1.476309 -0.594971,0.446228 -1.583492,1.15384 -1.878936,1.744726 -0.05299,0.105987 0.03773,0.289443 0,0.402629 -0.06327,0.189802 -0.240125,0.338784 -0.26842,0.53684 -0.158313,1.108183 0.09339,2.675543 0.40263,3.757874 0.425722,1.490031 1.956922,4.262067 2.952615,5.368396 0.756952,0.84106 1.843368,1.56233 2.818405,2.14735 1.502304,0.90139 3.332337,1.20026 4.965764,1.74473 0.284702,0.0949 0.516704,0.32019 0.805259,0.40263 0.3468,0.0991 0.72377,0.0467 1.073679,0.13421 0.194093,0.0485 0.357891,0.17895 0.53684,0.26842 0.268419,0.0895 0.529055,0.20704 0.805256,0.26842 1.108059,0.24624 2.448714,0.5495 3.623668,0.40263 0.633142,-0.0791 1.573664,-0.36578 2.013145,-0.80526 0.03163,-0.0316 -0.03836,-0.11119 0,-0.13421 0.206582,-0.12395 0.464468,-0.14447 0.67105,-0.26842 0.121309,-0.0728 0.07094,-0.27609 0.13421,-0.40263 0.212542,-0.42508 0.479472,-0.82473 0.671052,-1.20789 0.04,-0.08 -0.0175,-0.18068 0,-0.26842 0.0835,-0.41773 0.18487,-0.79015 0.26842,-1.20788 0.13986,-0.69932 -0.0581,-1.584119 0,-2.281572 0.0396,-0.475585 0.38463,-2.021411 0.40263,-2.147355 0.13224,-0.925671 0.004,-2.133873 -0.26842,-2.952618 -0.0703,-0.210725 -1.070521,-1.563671 -1.342102,-1.744726 -0.219795,-0.146531 -0.555421,-0.185142 -0.80526,-0.26842 -0.191312,-0.06377 -0.193256,-0.193257 -0.268419,-0.268419 -0.04474,-0.04474 -0.357892,-0.08948 -0.40263,-0.13421 -0.03163,-0.03163 0.03163,-0.102577 0,-0.13421 -0.04474,-0.04474 -0.357891,-0.08947 -0.40263,-0.13421 -0.150241,-0.150241 -0.178887,-0.313097 -0.402629,-0.53684 -0.172257,-0.172257 -0.407813,-0.273603 -0.536837,-0.402629 -0.06711,-0.0671 0.0671,-0.335524 0,-0.40263 -0.03163,-0.03163 -0.102577,0.03163 -0.13421,0 -0.04474,-0.04474 -0.08947,-0.357891 -0.13421,-0.40263 -0.03163,-0.03163 -0.102576,0.03163 -0.13421,0 -0.167849,-0.167849 0.158694,-0.256175 -0.671049,-0.671047 z"
       style="fill:none;stroke:#000000;stroke-width:0.264583px;stroke-linecap:butt;stroke-linejoin:miter;stroke-opacity:1" />
    <path
       inkscape:connector-curvature="0"
       id="path22"
       d="m 102.40208,108.57574 c -0.16596,0.64297 -0.17141,0.89826 -0.40263,1.4763 -0.2346,0.58652 -0.67451,0.94641 -0.93946,1.47631 -0.04,0.08 0.0633,0.20515 0,0.26842 -0.0316,0.0316 -0.10258,-0.0316 -0.13421,0 -0.23705,0.23704 -0.23838,0.87938 -0.40263,1.20789 -0.0566,0.11317 -0.21184,0.15524 -0.26842,0.26842 -0.15171,0.3034 -0.442381,1.46882 -0.536842,1.61052 -0.02482,0.0372 -0.120063,-0.0424 -0.13421,0 -0.04244,0.12732 0.03255,0.27242 0,0.40262 -0.01535,0.0614 -0.08947,0.0895 -0.13421,0.13421 -0.04474,0.0895 -0.114591,0.17033 -0.13421,0.26842 -0.134779,0.6739 -0.289994,1.33734 -0.40263,2.01315 -0.121083,0.72651 -0.617833,1.31432 -0.268419,2.01315 0.04001,0.08 -0.06327,0.20515 0,0.26842 0.06327,0.0633 0.188394,-0.04 0.268419,0 1.210782,0.60539 5.462082,1.02856 6.442072,0.93947 0.22415,-0.0204 -0.80526,-2.6571 -0.80526,-2.81841 0,-1.1899 0.13125,-2.44247 0,-3.62366 0.39695,-0.40289 -0.21381,-0.74606 -0.26842,-1.07368 -0.0368,-0.22064 0.0707,-0.45885 0,-0.67105 -0.1373,-0.4119 -0.26242,-0.78725 -0.40263,-1.20789 -0.0253,-0.0759 0.0539,-0.34873 0,-0.40263 -0.0316,-0.0316 -0.10257,0.0316 -0.13421,0 -0.16247,-0.16247 -0.13309,-0.53572 -0.26842,-0.67105 -0.0316,-0.0316 -0.10257,0.0316 -0.13421,0 -0.0633,-0.0633 0.0633,-0.20515 0,-0.26842 -0.0671,-0.0671 -0.20131,-0.0671 -0.26842,-0.13421 -0.0633,-0.0633 0.0633,-0.20515 0,-0.26842 -0.0316,-0.0316 -0.10257,0.0316 -0.13421,0 -0.0633,-0.0633 0.04,-0.18839 0,-0.26842 -0.0988,-0.19763 -0.17806,-0.17807 -0.26842,-0.26841 -0.17035,-0.17036 -0.16068,-0.45558 -0.26842,-0.67105 z"
       style="fill:none;stroke:#000000;stroke-width:0.264583px;stroke-linecap:butt;stroke-linejoin:miter;stroke-opacity:1" />
    <path
       inkscape:connector-curvature="0"
       id="path24"
       d="m 108.30732,109.91783 c -0.62632,1.47631 -1.25263,2.95262 -1.87894,4.42893 -0.0447,0.13421 -0.0817,0.27128 -0.13421,0.40263 -0.12654,0.31633 -0.29489,0.61624 -0.40263,0.93946 -0.16943,0.50829 0,2.52587 0,3.22104 0,0.10509 -0.067,0.60408 0,0.67105 0.0316,0.0316 0.10257,-0.0316 0.13421,0 0.12536,0.12536 0.14306,0.54569 0.26842,0.67105 0.0633,0.0633 0.18839,-0.04 0.26842,0 0.34365,0.17182 0.43387,0.12379 0.80526,0 0.0759,-0.0253 0.34872,0.0539 0.40263,0 0.0316,-0.0316 -0.0316,-0.10258 0,-0.13421 0.29598,-0.29599 1.26385,0.34666 1.47631,0.13421 0.0633,-0.0633 -0.04,-0.18839 0,-0.26842 0.12353,-0.24708 0.27908,-0.0213 0.40262,-0.26842 0.0491,-0.0982 0.12009,-4.88803 0,-5.36839 -0.16922,-0.6769 -0.38942,-1.31568 -0.67104,-1.87894 -0.0608,-0.12163 0,-0.55196 0,-0.67105 0,-0.17951 -0.0992,-1.17285 -0.13421,-1.20789 -0.0316,-0.0316 -0.10258,0.0316 -0.13421,0 -0.18446,-0.18445 -0.24612,-0.46236 -0.40263,-0.67105 z"
       style="fill:none;stroke:#000000;stroke-width:0.264583px;stroke-linecap:butt;stroke-linejoin:miter;stroke-opacity:1" />
    <path
       transform="scale(0.26458333)"
       inkscape:connector-curvature="0"
       id="path28"
       d="m 446.83987,389.57272 c -0.19801,-0.32038 -1.08839,-0.5841 -1.97863,-0.58606 -3.02891,-0.007 -10.22853,-2.042 -15.06074,-4.25772 -2.65038,-1.21528 -5.44428,-2.40855 -6.20867,-2.65172 -2.37321,-0.75497 -9.56033,-8.31868 -12.06529,-12.6975 l -2.26966,-3.96748 0.031,-8.37419 c 0.0291,-7.86531 0.10937,-8.54371 1.32059,-11.16406 1.46829,-3.17646 9.42112,-12.32402 11.77081,-13.53909 2.61335,-1.35142 4.40336,-1.68469 11.73283,-2.18446 3.90582,-0.26632 8.01454,-0.80667 9.13049,-1.20078 2.9911,-1.05635 24.97481,-1.08957 28.73719,-0.0434 3.57818,0.99492 8.86597,2.03595 13.87178,2.73099 6.09928,0.84688 9.65264,1.99766 11.65699,3.77521 1.7703,1.56999 1.78806,1.62709 1.91283,6.14995 l 0.12593,4.56525 -2.87608,4.058 c -1.58185,2.2319 -3.35089,4.34526 -3.93119,4.69636 -0.58031,0.35109 -1.0551,0.96523 -1.0551,1.36474 0,0.39951 -1.14238,1.68965 -2.53862,2.86697 -3.16346,2.66747 -3.76363,4.58171 -3.40325,10.85466 0.27237,4.74103 -0.52308,9.50728 -1.96486,11.77322 -0.92192,1.44893 -10.31818,5.99197 -14.48449,7.00317 -4.19828,1.01897 -21.9317,1.67288 -22.45387,0.82798 z"
       style="fill:#000000;stroke-width:0.50725" />
    <path
       transform="scale(0.26458333)"
       inkscape:connector-curvature="0"
       id="path30"
       d="m 357.26379,397.1566 c -2.37139,-0.52371 -5.51845,-1.43408 -6.99346,-2.02304 -1.47501,-0.58897 -3.25538,-1.07085 -3.95637,-1.07085 -0.701,0 -1.99223,-0.37113 -2.8694,-0.82473 -0.87717,-0.4536 -4.68493,-1.72495 -8.4617,-2.82521 -11.62634,-3.38702 -19.32079,-8.22396 -24.50276,-15.4031 -3.54273,-4.90811 -8.13383,-14.01437 -9.31879,-18.48343 -0.91667,-3.45721 -1.19356,-11.64245 -0.49139,-14.52606 0.46041,-1.89075 3.03105,-4.45143 8.96222,-8.92747 3.46864,-2.61766 5.23386,-3.55967 8.62325,-4.60182 5.81263,-1.78724 7.48138,-2.02186 13.64592,-1.91858 6.64057,0.11125 12.15257,1.3673 19.23264,4.38267 9.27204,3.94891 12.2638,5.76584 13.54919,8.22855 1.25874,2.41167 5.97631,7.21771 7.08485,7.21771 0.39231,0 0.71329,0.2191 0.71329,0.48689 0,0.26779 0.93875,0.76815 2.08611,1.1119 1.56261,0.46817 2.56518,1.26885 3.99521,3.19067 2.62989,3.53434 2.92891,4.2173 3.55082,8.11028 0.46294,2.89794 0.3828,4.29656 -0.53466,9.33077 -0.68655,3.76716 -0.98908,7.02924 -0.83146,8.96535 0.4557,5.59773 -2.55074,15.44672 -4.96889,16.2779 -0.55798,0.19179 -1.50008,0.86918 -2.09357,1.5053 -2.34485,2.51333 -9.58707,3.30556 -16.42105,1.7963 z"
       style="fill:#000000;stroke-width:0.50725" />
    <path
       transform="scale(0.26458333)"
       inkscape:connector-curvature="0"
       id="path32"
       d="m 392.01039,456.10312 c -4.45302,-0.39672 -12.84107,-1.74843 -15.55681,-2.50692 -3.39971,-0.94953 -3.82669,-1.82537 -2.71576,-5.57067 0.4041,-1.36234 1.0869,-4.18894 1.51734,-6.28135 0.71538,-3.47749 1.15259,-4.82694 2.32017,-7.16117 0.22574,-0.4513 0.67764,-1.81284 1.00421,-3.02564 0.32657,-1.2128 1.02829,-2.7575 1.55938,-3.43267 0.53108,-0.67516 0.96561,-1.56175 0.96561,-1.97019 0,-1.03803 1.4414,-4.05163 3.1515,-6.58895 0.79411,-1.17824 1.86813,-3.11847 2.38672,-4.31162 l 0.94289,-2.16936 0.57645,1.46118 c 0.31705,0.80366 1.05561,2.13411 1.64125,2.95657 1.33192,1.8705 3.45022,7.79142 3.46448,9.68362 0.006,0.78107 0.32651,2.03651 0.71249,2.78987 0.53069,1.03578 0.6594,3.20816 0.52788,8.91002 -0.16619,7.20545 -0.10726,7.74835 1.32721,12.22645 0.82561,2.5774 1.50112,4.83377 1.50112,5.01416 0,0.3267 -1.46942,0.32027 -5.32613,-0.0233 z"
       style="fill:#000000;stroke-width:0.50725" />
    <path
       transform="scale(0.26458333)"
       inkscape:connector-curvature="0"
       id="path34"
       d="m 401.68529,452.31849 c -0.6019,-1.20653 -0.79803,-3.20712 -0.79803,-8.14026 v -6.54058 l 4.04624,-9.68625 c 2.22543,-5.32744 4.16014,-9.80017 4.29936,-9.93939 0.13922,-0.13922 0.60104,0.0356 1.02626,0.38852 0.52889,0.43893 0.77314,1.56443 0.77314,3.56263 0,1.99686 0.43939,4.02337 1.38882,6.40533 1.34601,3.3769 1.38902,3.78929 1.39494,13.37587 0.006,9.26898 -0.0587,9.95636 -1.02378,10.92126 -0.87838,0.87823 -1.3197,0.96117 -2.99987,0.56382 -1.34957,-0.31917 -2.26113,-0.28408 -2.89442,0.11142 -0.50843,0.31752 -1.70972,0.57732 -2.66953,0.57732 -1.45103,0 -1.87958,-0.26957 -2.54313,-1.59969 z"
       style="fill:#000000;stroke-width:0.50725" />
  </g>
</svg>
