<svg id="svg" xmlns="http://www.w3.org/2000/svg" xmlns:xlink="http://www.w3.org/1999/xlink" width="400" height="400" viewBox="0, 0, 400,400"><g id="svgg"><path id="path0" d="M195.200 4.256 C 195.145 4.309,193.480 4.421,191.500 4.506 C 189.520 4.591,187.585 4.684,187.200 4.713 C 186.276 4.782,183.928 4.987,182.800 5.097 C 182.305 5.145,181.450 5.226,180.900 5.278 C 179.461 5.413,175.063 5.953,172.500 6.309 C 171.290 6.477,169.985 6.659,169.600 6.712 C 169.215 6.766,168.765 6.846,168.600 6.891 C 168.435 6.937,167.895 7.025,167.400 7.087 C 166.491 7.202,166.306 7.234,164.500 7.593 C 163.950 7.703,163.230 7.838,162.900 7.895 C 161.780 8.087,161.479 8.150,157.200 9.088 C 154.003 9.788,151.947 10.317,148.400 11.354 C 147.465 11.627,146.295 11.964,145.800 12.102 C 144.645 12.424,139.425 14.165,138.900 14.404 C 138.680 14.504,137.156 15.089,135.513 15.705 C 132.318 16.902,131.787 17.122,128.500 18.615 C 125.860 19.813,121.815 21.886,119.300 23.328 C 118.860 23.581,118.243 23.932,117.929 24.110 C 117.614 24.287,116.234 25.145,114.862 26.016 C 113.490 26.887,112.285 27.600,112.184 27.600 C 112.083 27.600,111.999 27.668,111.998 27.750 C 111.997 27.832,111.435 28.259,110.748 28.698 C 110.062 29.136,109.342 29.638,109.149 29.813 C 108.956 29.988,108.299 30.484,107.688 30.916 C 99.785 36.501,89.622 47.358,84.861 55.301 C 84.730 55.521,84.145 56.494,83.561 57.464 C 81.845 60.316,81.805 60.389,80.491 63.000 C 79.799 64.375,78.725 66.715,78.105 68.200 C 77.485 69.685,76.898 71.080,76.801 71.300 C 76.704 71.520,76.564 71.925,76.490 72.200 C 76.416 72.475,76.236 72.970,76.091 73.300 C 74.102 77.803,71.888 88.042,70.966 97.000 C 70.560 100.946,70.651 115.130,71.091 116.437 C 71.140 116.582,71.225 117.285,71.280 118.000 C 71.418 119.785,72.104 124.368,72.702 127.500 C 73.346 130.877,73.298 130.650,73.770 132.500 C 73.995 133.380,74.222 134.325,74.276 134.600 C 74.667 136.609,77.624 145.917,78.692 148.500 C 78.828 148.830,79.057 149.415,79.200 149.800 C 79.692 151.125,80.855 153.903,81.527 155.358 C 81.897 156.159,82.200 156.862,82.200 156.919 C 82.200 157.152,86.751 166.053,87.674 167.625 C 90.899 173.115,90.989 173.260,93.200 176.581 C 94.245 178.150,95.350 179.815,95.657 180.281 L 96.213 181.128 95.982 186.214 C 95.557 195.572,96.167 206.467,97.489 213.157 C 97.770 214.577,99.316 220.512,99.533 221.000 C 99.606 221.165,99.681 221.345,99.699 221.400 C 99.718 221.455,99.838 221.753,99.967 222.063 C 100.095 222.373,100.200 222.719,100.200 222.832 C 100.200 223.272,102.882 228.547,103.899 230.107 C 106.183 233.611,109.274 236.773,112.501 238.906 C 114.134 239.985,114.317 240.091,115.750 240.779 C 116.802 241.284,117.202 241.702,116.966 242.050 C 116.948 242.078,117.036 242.294,117.164 242.532 C 117.382 242.941,119.579 251.435,119.689 252.296 C 119.717 252.518,119.839 253.060,119.960 253.500 C 120.363 254.961,121.558 261.043,122.279 265.300 C 122.897 268.951,123.079 270.173,123.292 272.100 C 123.316 272.320,123.393 272.770,123.463 273.100 C 123.533 273.430,123.636 274.215,123.690 274.845 C 123.745 275.474,123.838 276.194,123.896 276.445 C 124.029 277.014,125.020 287.129,124.963 287.343 C 124.940 287.429,124.984 287.995,125.060 288.600 C 125.136 289.205,125.424 293.075,125.700 297.200 C 126.305 306.261,126.688 310.558,127.235 314.400 C 127.461 315.995,127.671 317.480,127.701 317.700 C 127.731 317.920,127.850 318.460,127.965 318.900 C 128.080 319.340,128.220 319.970,128.276 320.300 C 128.331 320.630,128.554 321.463,128.770 322.150 C 128.986 322.838,129.116 323.400,129.057 323.400 C 128.999 323.400,129.040 323.513,129.149 323.650 C 129.259 323.788,129.460 324.260,129.598 324.700 C 129.811 325.380,130.305 326.379,131.478 328.503 C 131.600 328.724,131.883 329.174,132.107 329.503 C 132.331 329.831,132.638 330.346,132.789 330.647 C 132.940 330.947,133.230 331.371,133.432 331.588 C 133.634 331.806,133.800 332.077,133.800 332.192 C 133.800 332.306,133.871 332.400,133.957 332.400 C 134.043 332.400,134.284 332.692,134.491 333.050 C 137.725 338.615,148.259 348.293,156.100 352.902 C 156.650 353.225,157.370 353.650,157.700 353.845 C 159.444 354.875,165.832 357.903,168.100 358.774 C 168.980 359.112,169.970 359.495,170.300 359.625 C 170.630 359.755,170.990 359.883,171.100 359.909 C 171.580 360.022,174.119 360.865,174.300 360.971 C 174.410 361.036,174.592 361.103,174.705 361.120 C 174.818 361.137,175.898 361.428,177.105 361.767 C 181.988 363.136,188.408 364.335,192.900 364.716 C 193.670 364.782,195.020 364.907,195.900 364.994 C 198.081 365.211,208.235 365.200,210.700 364.978 C 212.383 364.826,216.437 364.377,218.701 364.091 C 219.031 364.049,220.246 363.835,221.401 363.615 C 222.555 363.395,223.725 363.173,224.000 363.120 C 225.582 362.820,228.371 362.173,228.800 362.007 C 229.075 361.900,229.975 361.635,230.800 361.416 C 232.078 361.078,236.630 359.595,237.900 359.102 C 244.493 356.546,248.771 354.463,253.332 351.590 C 254.371 350.935,255.306 350.400,255.410 350.400 C 255.515 350.400,255.600 350.310,255.600 350.200 C 255.600 350.090,255.735 350.000,255.900 350.000 C 256.065 350.000,256.200 349.910,256.200 349.800 C 256.200 349.690,256.296 349.600,256.414 349.600 C 256.532 349.600,256.745 349.488,256.888 349.350 C 257.030 349.213,257.845 348.605,258.698 348.000 C 260.159 346.964,261.807 345.672,263.400 344.313 C 263.785 343.985,265.634 342.183,267.509 340.308 C 270.470 337.348,271.696 336.019,272.749 334.628 C 272.885 334.448,273.425 333.741,273.949 333.058 C 275.600 330.902,276.144 330.136,276.974 328.800 C 279.490 324.751,280.282 322.714,281.292 317.700 C 281.815 315.102,281.917 314.491,282.110 312.800 C 282.167 312.305,282.299 311.225,282.404 310.400 C 282.606 308.815,283.120 303.458,283.297 301.100 C 283.355 300.330,283.464 299.070,283.538 298.300 C 283.613 297.530,283.661 296.843,283.645 296.772 C 283.628 296.702,283.754 295.082,283.924 293.172 C 284.095 291.263,284.235 289.565,284.237 289.400 C 284.239 289.235,284.324 288.245,284.426 287.200 C 284.528 286.155,284.657 284.715,284.712 284.000 C 284.859 282.082,285.589 275.316,285.823 273.700 C 285.935 272.930,286.069 271.850,286.120 271.300 C 286.234 270.096,287.535 261.574,287.809 260.243 C 287.915 259.725,288.048 258.914,288.104 258.442 C 288.160 257.971,288.658 255.361,289.210 252.642 C 289.762 249.924,290.259 247.475,290.315 247.200 C 290.370 246.925,290.569 246.075,290.757 245.312 L 291.100 243.923 293.200 243.087 C 300.828 240.050,307.057 233.889,310.069 226.400 C 310.268 225.905,310.510 225.320,310.606 225.100 C 311.132 223.901,312.292 219.726,312.810 217.168 C 313.392 214.298,313.477 213.741,313.713 211.300 C 313.776 210.640,313.904 209.380,313.998 208.500 C 314.529 203.485,314.016 187.443,313.042 178.600 C 312.833 176.698,312.873 176.560,314.047 175.179 C 316.021 172.854,317.218 171.215,319.728 167.400 C 320.632 166.025,321.446 164.807,321.536 164.694 C 321.626 164.581,321.873 164.176,322.085 163.794 C 322.297 163.412,322.700 162.740,322.980 162.300 C 323.533 161.432,323.592 161.332,324.668 159.400 C 325.741 157.475,328.239 152.359,329.112 150.300 C 329.532 149.310,329.948 148.414,330.037 148.310 C 330.127 148.205,330.200 148.002,330.200 147.858 C 330.200 147.714,330.377 147.214,330.594 146.748 C 330.963 145.955,333.953 137.146,334.097 136.428 C 334.134 136.247,334.438 135.018,334.773 133.696 C 336.019 128.782,337.188 121.984,337.502 117.818 C 337.556 117.093,337.644 116.050,337.697 115.500 C 338.060 111.733,337.946 102.570,337.490 98.854 C 336.933 94.320,336.686 92.657,336.173 90.000 C 335.843 88.295,335.345 86.000,335.066 84.900 C 334.787 83.800,334.540 82.810,334.517 82.700 C 334.330 81.798,331.555 73.503,331.376 73.310 C 331.279 73.205,331.200 73.006,331.200 72.866 C 331.200 72.726,330.987 72.137,330.727 71.556 C 330.467 70.975,330.084 70.095,329.877 69.600 C 328.692 66.772,326.022 61.721,324.029 58.538 C 323.353 57.459,322.800 56.491,322.800 56.388 C 322.800 56.285,322.732 56.200,322.649 56.200 C 322.566 56.200,322.387 55.953,322.252 55.650 C 322.116 55.348,321.775 54.833,321.493 54.507 C 321.210 54.181,320.783 53.596,320.543 53.207 C 320.304 52.818,319.955 52.320,319.769 52.100 C 319.583 51.880,319.066 51.205,318.619 50.600 C 317.664 49.306,317.247 48.772,316.693 48.138 C 316.469 47.881,315.929 47.229,315.493 46.688 C 313.335 44.012,306.818 37.485,303.922 35.100 C 303.388 34.660,302.794 34.165,302.602 34.000 C 302.410 33.835,301.957 33.475,301.595 33.200 C 301.233 32.925,300.838 32.606,300.718 32.491 C 300.488 32.270,298.121 30.506,297.100 29.794 C 296.770 29.564,295.825 28.888,295.000 28.292 C 294.175 27.696,293.387 27.206,293.250 27.204 C 293.113 27.202,293.000 27.110,293.000 27.000 C 293.000 26.890,292.909 26.800,292.798 26.800 C 292.687 26.800,292.169 26.502,291.648 26.138 C 291.127 25.773,290.565 25.412,290.400 25.335 C 290.235 25.259,289.830 25.024,289.500 24.814 C 286.961 23.201,279.634 19.390,276.400 18.000 C 275.575 17.646,274.814 17.276,274.710 17.178 C 274.605 17.080,274.405 17.000,274.265 17.000 C 274.125 17.000,273.491 16.766,272.855 16.479 C 271.267 15.764,271.163 15.722,268.900 14.908 C 267.800 14.512,266.720 14.109,266.500 14.012 C 266.121 13.845,262.312 12.597,259.700 11.784 C 257.141 10.988,252.410 9.696,250.551 9.285 C 249.753 9.109,248.785 8.892,248.400 8.804 C 244.428 7.898,238.920 6.894,234.621 6.294 C 233.455 6.131,232.320 5.963,232.100 5.922 C 231.743 5.854,231.229 5.792,228.600 5.498 C 227.010 5.320,221.110 4.785,218.500 4.582 C 215.671 4.362,195.385 4.078,195.200 4.256 M216.800 10.601 C 262.816 13.655,296.418 29.472,315.939 57.267 C 337.806 88.404,336.929 132.149,313.770 165.391 C 311.779 168.248,311.919 168.198,311.626 166.150 C 309.252 149.595,309.189 140.433,311.411 135.100 C 311.549 134.770,311.682 134.410,311.706 134.300 C 311.731 134.190,312.116 132.930,312.561 131.500 C 318.432 112.676,318.934 101.389,314.313 92.139 C 313.344 90.199,311.636 89.499,309.997 90.370 C 308.265 91.291,307.994 92.815,309.092 95.467 C 312.730 104.254,311.949 113.643,306.094 131.540 C 302.922 141.234,302.826 146.914,305.502 166.700 C 309.534 196.528,308.964 215.106,303.692 225.612 C 300.138 232.692,293.146 237.909,286.284 238.599 C 272.906 239.943,263.639 247.170,256.404 261.900 C 253.211 268.400,252.657 270.073,253.214 271.537 C 254.182 274.081,240.430 278.387,228.135 279.389 C 226.848 279.494,225.728 279.621,225.647 279.671 C 225.059 280.034,214.228 280.475,205.800 280.478 C 186.456 280.485,170.970 278.630,161.893 275.218 C 159.394 274.278,156.862 272.822,156.971 272.385 C 157.386 270.729,156.923 269.008,155.011 265.100 C 149.192 253.201,135.916 241.845,121.700 236.605 C 107.329 231.308,101.643 217.874,102.059 190.200 C 102.186 181.770,102.216 181.454,103.707 173.000 C 107.884 149.319,107.916 142.670,103.905 131.800 C 97.661 114.881,97.063 107.436,101.111 96.965 C 102.708 92.834,102.736 92.289,101.424 90.976 C 99.419 88.972,97.287 89.911,95.866 93.422 C 90.737 106.095,91.332 116.250,98.255 134.200 C 100.984 141.274,101.369 146.307,100.017 157.215 C 99.563 160.877,97.825 171.378,97.608 171.774 C 97.207 172.504,90.324 160.147,87.164 153.026 C 65.544 104.306,77.862 56.259,118.469 30.916 C 142.540 15.894,179.984 8.158,216.800 10.601 M247.000 148.227 C 239.800 148.964,236.437 150.621,231.456 155.884 C 226.069 161.576,224.244 167.234,224.975 175.972 C 225.986 188.045,234.915 201.305,245.458 206.388 C 257.902 212.388,274.498 209.079,282.015 199.100 C 289.553 189.092,292.569 166.273,287.325 158.924 C 282.177 151.711,262.906 146.599,247.000 148.227 M152.400 149.120 C 135.173 150.592,123.733 155.387,121.204 162.198 C 118.438 169.645,120.177 185.599,124.817 195.334 C 133.180 212.881,158.748 215.804,173.218 200.868 C 182.729 191.050,186.631 178.962,184.180 166.908 C 182.809 160.163,174.934 151.919,168.226 150.207 C 164.773 149.325,156.581 148.762,152.400 149.120 M197.900 202.029 C 188.829 208.923,184.943 214.866,182.225 226.000 C 177.616 244.878,179.941 256.900,188.200 256.900 C 192.105 256.900,194.383 255.063,199.271 247.972 L 200.600 246.045 200.600 223.122 C 200.600 210.515,200.533 200.201,200.450 200.202 C 200.368 200.203,199.220 201.025,197.900 202.029 M207.600 223.368 L 207.600 246.336 208.832 248.118 C 213.516 254.891,215.927 256.958,219.380 257.158 C 225.835 257.531,229.197 250.580,228.024 239.283 C 226.362 223.278,222.932 214.116,216.009 207.189 C 213.950 205.129,208.171 200.400,207.712 200.400 C 207.651 200.400,207.600 210.736,207.600 223.368 M126.060 245.216 C 127.993 246.179,128.424 246.431,131.224 248.239 C 133.653 249.807,133.254 249.139,135.445 255.300 C 140.251 268.818,145.319 290.363,146.712 303.200 C 146.907 304.995,147.104 305.304,149.761 307.978 C 153.691 311.932,158.376 315.140,164.139 317.824 C 165.328 318.377,166.750 319.046,167.300 319.311 C 170.341 320.772,179.798 323.472,185.400 324.478 C 215.175 329.824,243.929 322.431,259.757 305.360 C 261.237 303.764,261.235 303.768,261.513 301.100 C 262.348 293.083,264.540 282.919,267.897 271.500 C 269.157 267.215,274.952 249.100,275.246 248.529 C 275.651 247.742,280.885 245.617,283.650 245.117 C 284.589 244.948,284.591 244.680,283.614 249.458 C 280.731 263.563,279.210 275.274,277.599 295.800 C 275.828 318.355,275.138 321.172,269.536 328.745 C 240.677 367.755,170.419 369.539,141.316 332.000 C 134.139 322.743,133.358 319.884,131.799 297.200 C 130.249 274.647,128.296 260.963,124.528 246.250 C 123.980 244.112,123.922 244.152,126.060 245.216 M269.243 257.145 C 267.978 260.852,267.012 263.847,266.097 266.900 C 265.800 267.890,265.430 269.091,265.275 269.569 C 264.706 271.317,262.232 280.576,261.633 283.200 C 260.628 287.597,260.031 290.417,259.810 291.800 C 259.696 292.515,259.558 293.321,259.505 293.592 C 259.451 293.863,259.356 294.448,259.293 294.892 C 259.231 295.336,259.145 295.835,259.101 296.000 C 259.058 296.165,258.965 296.786,258.894 297.380 C 258.823 297.975,258.739 298.605,258.706 298.780 C 258.673 298.956,258.584 299.865,258.509 300.800 L 258.371 302.500 255.878 304.950 C 252.866 307.910,252.974 307.892,253.005 305.450 C 253.049 301.960,252.799 280.353,252.692 278.388 L 252.587 276.476 253.559 275.846 C 254.094 275.499,254.930 274.823,255.416 274.343 C 255.902 273.863,256.724 273.268,257.242 273.021 C 258.257 272.537,258.694 271.964,259.394 270.200 C 259.634 269.595,259.954 268.830,260.105 268.500 C 260.255 268.170,260.650 267.287,260.982 266.538 C 261.579 265.190,263.327 262.600,263.639 262.600 C 263.727 262.600,263.800 262.487,263.800 262.348 C 263.800 262.209,264.025 261.853,264.300 261.557 C 264.575 261.260,264.800 260.959,264.800 260.888 C 264.800 260.816,265.092 260.385,265.448 259.929 C 265.805 259.473,266.166 259.010,266.252 258.900 C 266.337 258.790,266.563 258.506,266.754 258.269 C 266.944 258.031,267.235 257.638,267.400 257.394 C 267.565 257.150,267.813 256.833,267.950 256.690 C 268.088 256.546,268.200 256.375,268.200 256.310 C 268.200 256.100,270.277 253.410,270.368 253.502 C 270.417 253.550,269.911 255.190,269.243 257.145 M139.196 254.850 C 139.752 255.538,140.322 256.235,140.464 256.400 C 140.605 256.565,141.030 257.105,141.408 257.600 C 141.785 258.095,142.186 258.598,142.297 258.718 C 142.409 258.838,142.722 259.229,142.994 259.586 C 143.265 259.943,143.670 260.443,143.894 260.697 C 144.584 261.480,145.557 262.679,146.141 263.467 C 146.984 264.603,148.756 266.860,149.072 267.200 C 149.456 267.613,150.121 269.009,150.805 270.837 C 151.679 273.172,152.254 273.821,153.681 274.079 C 153.997 274.137,154.409 274.345,154.598 274.542 C 154.786 274.739,155.226 275.150,155.575 275.456 L 156.210 276.012 156.170 292.706 C 156.148 301.888,156.092 309.400,156.044 309.400 C 155.847 309.400,153.377 307.361,152.406 306.397 C 150.527 304.531,149.847 303.608,149.731 302.766 C 149.666 302.290,149.558 301.495,149.492 301.000 C 149.389 300.233,148.367 294.138,147.797 290.900 C 147.234 287.697,146.737 285.095,146.403 283.600 C 146.194 282.665,145.830 281.000,145.593 279.900 C 143.948 272.243,141.024 261.892,138.716 255.550 C 137.878 253.248,137.888 253.233,139.196 254.850 M165.279 279.461 L 167.659 280.077 167.551 287.650 C 167.492 291.815,167.393 295.274,167.330 295.336 C 167.209 295.458,166.035 295.012,161.850 293.257 L 159.200 292.146 159.200 284.801 L 159.200 277.456 161.050 278.151 C 162.067 278.533,163.971 279.123,165.279 279.461 M249.670 279.050 C 249.921 281.134,249.821 291.949,249.550 292.062 C 247.329 292.994,241.732 295.198,241.691 295.156 C 241.662 295.125,241.571 291.799,241.491 287.765 L 241.344 280.430 242.222 280.209 C 243.910 279.783,247.800 278.601,248.447 278.318 C 249.454 277.878,249.535 277.926,249.670 279.050 M175.200 281.464 L 179.300 282.113 179.227 290.607 C 179.188 295.278,179.135 299.122,179.111 299.150 C 178.955 299.327,170.975 296.845,170.692 296.531 C 170.383 296.188,170.556 280.797,170.868 280.808 C 170.996 280.812,172.945 281.107,175.200 281.464 M238.400 284.068 C 238.400 285.755,238.459 289.174,238.532 291.665 L 238.664 296.194 237.930 296.500 C 236.906 296.928,229.841 299.000,229.405 299.000 C 229.106 299.000,228.613 282.897,228.899 282.452 C 228.916 282.425,230.273 282.222,231.915 282.001 C 233.557 281.779,235.575 281.473,236.400 281.321 C 237.225 281.168,238.013 281.034,238.150 281.022 C 238.340 281.005,238.400 281.735,238.400 284.068 M186.700 282.804 C 188.350 282.924,189.993 283.067,190.350 283.120 L 191.000 283.218 191.000 292.297 C 191.000 297.291,190.932 301.419,190.848 301.470 C 190.546 301.657,182.675 300.165,182.405 299.870 C 182.319 299.777,182.295 295.800,182.352 291.033 L 182.455 282.366 183.078 282.475 C 183.420 282.536,185.050 282.683,186.700 282.804 M225.892 288.250 C 225.967 291.248,226.000 295.089,225.964 296.786 L 225.900 299.872 225.300 300.038 C 224.803 300.176,218.307 301.400,218.073 301.400 C 218.033 301.400,218.000 297.317,218.000 292.327 L 218.000 283.254 220.850 283.060 C 222.418 282.953,224.162 282.851,224.727 282.833 L 225.754 282.800 225.892 288.250 M199.950 283.532 L 202.800 283.662 202.800 293.061 L 202.800 302.459 199.450 302.307 C 197.608 302.223,195.650 302.098,195.100 302.027 L 194.100 301.900 194.048 292.650 L 193.996 283.400 195.548 283.401 C 196.402 283.401,198.383 283.460,199.950 283.532 M214.879 283.716 C 214.945 283.890,215.000 288.019,215.000 292.890 L 215.000 301.748 214.285 301.864 C 212.858 302.095,206.194 302.461,206.049 302.316 C 205.967 302.234,205.873 297.992,205.841 292.889 L 205.781 283.610 209.041 283.550 C 210.833 283.517,212.853 283.469,213.529 283.445 C 214.493 283.410,214.783 283.468,214.879 283.716 M249.980 303.644 L 250.000 309.988 248.497 311.046 C 246.434 312.496,242.223 314.889,242.045 314.712 C 241.789 314.456,241.627 298.729,241.878 298.475 C 242.000 298.351,243.090 297.879,244.300 297.427 C 245.510 296.975,247.220 296.301,248.100 295.930 L 249.700 295.255 249.830 296.277 C 249.902 296.840,249.969 300.155,249.980 303.644 M165.574 298.013 L 167.447 298.700 167.349 307.158 C 167.295 311.810,167.190 315.676,167.117 315.750 C 166.956 315.911,163.367 314.160,160.950 312.740 L 159.200 311.712 159.200 303.574 L 159.200 295.436 161.450 296.381 C 162.688 296.901,164.543 297.636,165.574 298.013 M238.670 302.450 C 238.867 306.829,238.869 316.211,238.674 316.401 C 238.246 316.815,229.488 319.967,229.310 319.770 C 229.275 319.732,229.214 315.785,229.173 311.000 L 229.100 302.300 229.900 302.066 C 230.340 301.937,232.365 301.341,234.400 300.740 C 236.435 300.140,238.199 299.638,238.321 299.624 C 238.468 299.608,238.585 300.555,238.670 302.450 M173.677 300.790 C 175.120 301.220,176.930 301.744,177.700 301.953 L 179.100 302.334 179.152 311.167 C 179.181 316.025,179.149 320.000,179.082 320.000 C 178.367 320.000,170.796 317.475,170.489 317.134 C 170.111 316.713,170.364 299.743,170.747 299.890 C 170.916 299.955,172.234 300.360,173.677 300.790 M186.700 303.896 C 188.350 304.176,189.993 304.453,190.350 304.511 L 191.000 304.618 191.000 309.059 C 190.999 311.502,190.940 315.457,190.868 317.850 L 190.736 322.200 190.203 322.200 C 189.609 322.200,185.884 321.566,183.650 321.085 L 182.200 320.773 182.200 312.020 C 182.200 302.486,182.153 302.965,183.063 303.214 C 183.414 303.310,185.050 303.617,186.700 303.896 M226.092 309.050 C 226.167 312.378,226.200 316.360,226.165 317.900 L 226.100 320.700 223.000 321.320 C 221.295 321.661,219.531 321.997,219.080 322.068 L 218.260 322.195 218.131 320.248 C 218.060 319.176,218.002 315.181,218.001 311.368 L 218.000 304.436 219.450 304.199 C 220.248 304.068,221.935 303.755,223.200 303.503 C 224.465 303.252,225.602 303.035,225.727 303.023 C 225.889 303.007,225.993 304.729,226.092 309.050 M215.000 313.677 L 215.000 322.555 214.150 322.677 C 213.337 322.794,207.388 323.198,206.450 323.199 L 206.000 323.200 206.000 314.328 L 206.000 305.456 208.750 305.307 C 210.263 305.226,212.130 305.091,212.900 305.008 C 213.670 304.925,214.457 304.844,214.650 304.828 C 214.979 304.802,215.000 305.345,215.000 313.677 M199.632 305.335 L 202.763 305.461 202.894 307.881 C 202.965 309.211,202.996 313.180,202.962 316.700 L 202.900 323.100 200.100 323.031 C 198.560 322.994,196.580 322.904,195.700 322.831 L 194.100 322.700 194.048 313.821 L 193.996 304.943 195.248 305.076 C 195.937 305.149,197.909 305.266,199.632 305.335 " stroke="none" fill="#040404" fill-rule="evenodd"></path><path id="path1" d="M193.100 10.623 C 146.320 13.018,111.697 28.308,92.599 55.005 C 70.541 85.840,71.718 129.753,95.651 168.854 C 96.645 170.478,97.483 171.783,97.512 171.754 C 97.603 171.661,98.562 166.070,99.184 162.000 C 101.321 148.036,101.109 142.298,98.168 134.402 C 91.071 115.352,90.553 104.018,96.242 92.275 C 98.364 87.896,103.750 90.084,102.086 94.649 C 99.135 102.741,98.909 103.816,98.904 109.800 C 98.901 113.615,98.969 114.820,99.266 116.200 C 100.347 121.215,101.423 124.720,104.148 132.100 C 108.070 142.725,108.015 149.069,103.789 173.300 C 103.137 177.040,102.560 180.370,102.507 180.700 C 101.897 184.493,102.023 199.793,102.715 205.800 C 104.758 223.548,110.302 232.235,122.500 236.800 C 134.250 241.198,145.859 250.363,152.517 260.500 C 155.738 265.403,157.694 270.342,157.123 272.131 C 156.479 274.146,168.286 277.601,180.900 279.090 C 193.850 280.619,221.606 280.815,226.500 279.411 C 226.830 279.317,227.613 279.234,228.239 279.226 C 234.776 279.152,247.795 275.851,251.600 273.304 C 253.214 272.223,253.139 272.386,252.869 270.550 C 252.746 269.716,253.296 268.190,255.280 263.859 C 262.572 247.942,272.128 240.047,285.961 238.512 C 294.714 237.540,302.148 230.941,305.284 221.361 C 307.786 213.715,308.660 201.153,307.605 188.000 C 306.858 178.689,306.314 173.585,305.200 165.400 C 303.306 151.499,303.043 144.880,304.126 138.400 C 304.468 136.357,304.605 135.863,306.757 128.961 C 311.891 112.488,312.462 103.475,308.888 95.345 C 306.627 90.202,312.180 87.394,314.577 92.468 C 319.271 102.402,318.311 115.744,311.502 135.234 C 310.148 139.108,309.629 144.211,309.984 150.156 C 310.319 155.768,311.734 167.191,312.100 167.243 C 312.659 167.324,318.108 158.592,320.800 153.300 C 341.559 112.503,332.158 65.630,297.694 38.091 C 272.988 18.350,235.334 8.461,193.100 10.623 M260.500 148.203 C 273.821 149.572,284.180 153.823,287.785 159.401 C 291.509 165.163,290.494 181.483,285.700 192.900 C 277.631 212.117,250.593 215.517,235.727 199.185 C 226.461 189.004,222.728 176.146,225.713 164.683 C 226.807 160.482,232.069 154.124,237.183 150.825 C 241.106 148.294,250.791 147.205,260.500 148.203 M164.100 149.310 C 171.272 150.253,175.974 153.169,180.855 159.700 C 186.123 166.749,186.557 179.060,181.869 188.452 C 174.690 202.834,164.800 210.075,151.700 210.541 C 140.676 210.933,130.834 205.995,125.901 197.599 C 119.769 187.161,117.682 166.763,122.082 160.267 C 127.363 152.469,147.735 147.157,164.100 149.310 M199.190 248.287 C 194.164 255.604,191.150 257.748,186.886 257.041 C 179.401 255.801,177.667 242.876,182.511 224.423 C 185.133 214.433,189.186 208.444,197.614 202.103 L 200.500 199.932 200.551 223.082 L 200.602 246.232 199.190 248.287 M210.859 202.542 C 221.721 210.752,226.085 219.920,228.116 238.800 C 229.335 250.126,226.173 257.265,219.942 257.251 C 216.010 257.242,213.680 255.355,208.729 248.172 L 207.400 246.245 207.400 223.201 C 207.400 202.516,207.432 200.169,207.709 200.276 C 207.878 200.341,209.296 201.360,210.859 202.542 M124.274 244.739 C 127.517 255.623,130.319 274.223,131.696 294.000 C 133.523 320.264,134.111 322.551,141.444 331.953 C 170.746 369.515,241.080 367.565,269.623 328.399 C 275.084 320.905,275.687 318.379,277.499 295.400 C 278.789 279.037,279.901 269.389,281.718 258.800 C 282.434 254.623,284.115 246.053,284.326 245.503 C 284.647 244.667,278.894 246.390,276.254 247.921 L 275.408 248.412 272.817 256.356 C 265.809 277.841,263.253 287.942,261.795 299.900 C 261.260 304.291,261.460 303.904,257.966 307.308 C 238.735 326.047,202.743 331.730,171.435 320.972 C 161.546 317.574,150.626 310.557,147.354 305.500 C 146.923 304.833,146.731 304.018,146.203 300.600 C 143.207 281.217,139.110 264.829,133.979 251.700 L 133.197 249.700 131.633 248.661 C 127.909 246.186,124.100 244.156,124.274 244.739 M159.247 284.798 L 159.300 292.041 161.400 292.942 C 162.555 293.437,164.379 294.187,165.452 294.607 L 167.405 295.372 167.352 287.762 L 167.300 280.151 164.900 279.494 C 162.866 278.937,161.359 278.431,159.547 277.698 C 159.214 277.563,159.198 277.948,159.247 284.798 M247.700 278.722 C 246.710 279.074,244.933 279.606,243.750 279.904 L 241.600 280.446 241.601 286.073 C 241.602 289.168,241.660 292.436,241.730 293.335 L 241.857 294.970 243.279 294.451 C 244.060 294.165,245.816 293.464,247.179 292.894 L 249.659 291.857 249.616 284.982 C 249.592 281.200,249.556 278.100,249.536 278.094 C 249.516 278.087,248.690 278.370,247.700 278.722 M170.732 285.940 C 170.659 288.759,170.600 292.296,170.600 293.802 L 170.600 296.539 174.050 297.589 C 175.947 298.166,177.761 298.720,178.080 298.819 C 179.272 299.191,179.200 299.721,179.200 290.609 L 179.200 282.218 178.550 282.109 C 178.192 282.050,176.373 281.769,174.506 281.485 C 172.639 281.201,171.056 280.935,170.988 280.892 C 170.920 280.850,170.804 283.122,170.732 285.940 M235.400 281.608 C 234.245 281.806,232.319 282.082,231.119 282.222 L 228.938 282.476 229.080 290.682 C 229.157 295.195,229.243 298.910,229.270 298.936 C 229.331 298.997,234.079 297.632,236.500 296.858 L 238.300 296.282 238.364 293.391 C 238.490 287.760,238.200 281.197,237.828 281.225 C 237.647 281.238,236.555 281.411,235.400 281.608 M182.448 291.217 L 182.500 299.891 183.600 300.137 C 185.198 300.496,190.635 301.434,190.694 301.362 C 190.722 301.328,190.801 297.245,190.869 292.289 L 190.993 283.279 187.691 283.029 C 185.875 282.892,183.941 282.727,183.392 282.662 L 182.396 282.544 182.448 291.217 M221.601 283.145 C 219.676 283.302,218.068 283.465,218.027 283.507 C 217.985 283.548,218.018 287.552,218.100 292.404 L 218.249 301.227 219.074 301.095 C 220.359 300.891,225.059 299.992,225.450 299.877 C 225.776 299.780,225.800 299.196,225.800 291.287 C 225.800 283.327,225.778 282.802,225.450 282.829 C 225.257 282.845,223.525 282.987,221.601 283.145 M194.200 292.624 L 194.200 301.748 194.950 301.876 C 195.363 301.946,197.310 302.063,199.277 302.134 L 202.854 302.265 202.709 293.082 C 202.629 288.032,202.505 283.841,202.432 283.768 C 202.359 283.695,200.477 283.605,198.250 283.568 L 194.200 283.500 194.200 292.624 M207.650 283.749 L 206.000 283.816 206.000 293.039 L 206.000 302.261 209.150 302.107 C 210.882 302.022,212.840 301.896,213.500 301.826 L 214.700 301.700 214.752 292.650 L 214.804 283.600 212.052 283.641 C 210.538 283.663,208.558 283.712,207.650 283.749 M248.200 296.010 C 247.485 296.323,245.747 297.011,244.337 297.539 L 241.774 298.500 241.912 306.600 C 241.988 311.055,242.062 314.713,242.075 314.729 C 242.143 314.808,246.530 312.221,248.166 311.136 L 250.032 309.900 249.918 308.900 C 249.855 308.350,249.803 305.088,249.802 301.650 C 249.801 298.213,249.732 295.409,249.650 295.420 C 249.568 295.431,248.915 295.696,248.200 296.010 M159.200 303.571 L 159.200 311.585 160.909 312.594 C 162.777 313.697,164.386 314.533,166.096 315.290 L 167.204 315.780 167.152 307.281 L 167.100 298.782 163.400 297.283 C 161.365 296.458,159.588 295.732,159.450 295.670 C 159.252 295.581,159.200 297.233,159.200 303.571 M236.700 300.233 C 235.710 300.547,233.640 301.153,232.100 301.579 L 229.300 302.355 229.353 310.914 C 229.382 315.621,229.444 319.511,229.490 319.557 C 229.611 319.678,233.684 318.319,236.445 317.238 L 238.790 316.319 238.667 308.010 C 238.600 303.439,238.535 299.692,238.522 299.681 C 238.510 299.671,237.690 299.919,236.700 300.233 M170.533 305.847 C 170.460 309.066,170.401 312.930,170.400 314.434 L 170.400 317.167 174.050 318.359 C 176.058 319.015,177.993 319.615,178.350 319.692 L 179.000 319.832 179.000 312.646 C 179.000 308.694,179.057 304.789,179.126 303.967 L 179.252 302.474 177.476 302.010 C 176.005 301.624,172.914 300.715,171.082 300.127 C 170.667 299.994,170.664 300.029,170.533 305.847 M182.400 311.960 L 182.400 320.748 183.050 320.858 C 183.408 320.919,184.915 321.191,186.400 321.462 C 187.885 321.733,189.483 322.011,189.950 322.080 L 190.800 322.205 190.800 313.430 L 190.800 304.655 189.711 304.527 C 188.534 304.389,183.323 303.455,182.750 303.280 C 182.420 303.179,182.400 303.684,182.400 311.960 M224.300 303.430 C 223.860 303.534,222.330 303.822,220.900 304.071 L 218.300 304.523 218.248 313.262 C 218.199 321.494,218.216 322.000,218.548 322.000 C 218.951 322.000,222.395 321.363,224.550 320.891 L 226.000 320.573 226.000 311.886 L 226.000 303.200 225.550 303.220 C 225.303 303.231,224.740 303.325,224.300 303.430 M211.800 305.217 C 210.755 305.305,209.008 305.437,207.918 305.510 L 205.936 305.642 206.073 314.260 C 206.149 318.999,206.256 322.923,206.311 322.978 C 206.438 323.104,214.284 322.632,214.697 322.473 C 215.045 322.340,215.103 317.980,214.868 309.650 L 214.736 305.000 214.218 305.028 C 213.933 305.043,212.845 305.128,211.800 305.217 M194.133 307.124 C 194.061 308.211,194.002 312.124,194.001 315.821 L 194.000 322.542 195.350 322.672 C 196.093 322.744,198.072 322.861,199.750 322.933 L 202.800 323.063 202.800 314.361 L 202.800 305.659 200.450 305.527 C 199.158 305.454,197.237 305.339,196.182 305.271 L 194.264 305.147 194.133 307.124 " stroke="none" fill="#fbfbfb" fill-rule="evenodd"></path><path id="path2" d="M202.558 10.348 C 203.250 10.387,204.330 10.387,204.958 10.348 C 205.586 10.308,205.020 10.276,203.700 10.276 C 202.380 10.277,201.866 10.309,202.558 10.348 M251.152 147.941 C 251.401 147.989,251.761 147.987,251.952 147.937 C 252.144 147.887,251.940 147.848,251.500 147.850 C 251.060 147.853,250.904 147.894,251.152 147.941 M253.952 147.941 C 254.201 147.989,254.561 147.987,254.752 147.937 C 254.944 147.887,254.740 147.848,254.300 147.850 C 253.860 147.853,253.704 147.894,253.952 147.941 M308.076 200.100 C 308.077 201.420,308.109 201.934,308.148 201.242 C 308.187 200.550,308.187 199.470,308.148 198.842 C 308.108 198.214,308.076 198.780,308.076 200.100 M236.792 200.250 C 237.282 200.773,237.710 201.200,237.742 201.200 C 237.892 201.200,237.733 201.020,236.850 200.192 L 235.900 199.300 236.792 200.250 M204.755 280.547 C 205.226 280.589,205.946 280.588,206.355 280.545 C 206.765 280.502,206.380 280.468,205.500 280.469 C 204.620 280.469,204.285 280.504,204.755 280.547 M170.660 281.800 C 170.660 282.405,170.697 282.653,170.743 282.350 C 170.789 282.048,170.789 281.553,170.743 281.250 C 170.697 280.947,170.660 281.195,170.660 281.800 M238.254 282.000 C 238.254 282.495,238.293 282.697,238.341 282.450 C 238.389 282.203,238.389 281.798,238.341 281.550 C 238.293 281.303,238.254 281.505,238.254 282.000 M241.454 283.800 C 241.454 284.295,241.493 284.498,241.541 284.250 C 241.589 284.002,241.589 283.598,241.541 283.350 C 241.493 283.103,241.454 283.305,241.454 283.800 M167.464 284.400 C 167.464 285.115,167.500 285.407,167.545 285.050 C 167.589 284.693,167.589 284.108,167.545 283.750 C 167.500 283.393,167.464 283.685,167.464 284.400 M205.877 286.200 C 205.877 287.575,205.909 288.137,205.948 287.450 C 205.987 286.762,205.987 285.637,205.948 284.950 C 205.909 284.262,205.877 284.825,205.877 286.200 M249.662 285.700 C 249.663 286.360,249.700 286.606,249.745 286.246 C 249.789 285.887,249.789 285.347,249.743 285.046 C 249.697 284.746,249.661 285.040,249.662 285.700 M194.078 295.500 C 194.078 296.930,194.110 297.489,194.148 296.742 C 194.187 295.995,194.187 294.825,194.148 294.142 C 194.109 293.459,194.077 294.070,194.078 295.500 M238.450 294.700 C 238.453 295.140,238.494 295.296,238.541 295.048 C 238.589 294.799,238.587 294.439,238.537 294.248 C 238.487 294.056,238.448 294.260,238.450 294.700 M225.864 295.600 C 225.864 296.315,225.900 296.608,225.945 296.250 C 225.989 295.893,225.989 295.308,225.945 294.950 C 225.900 294.593,225.864 294.885,225.864 295.600 M214.878 298.700 C 214.878 300.130,214.910 300.689,214.948 299.942 C 214.987 299.195,214.987 298.025,214.948 297.342 C 214.909 296.659,214.877 297.270,214.878 298.700 M229.057 298.100 C 229.059 298.650,229.098 298.851,229.144 298.547 C 229.189 298.243,229.188 297.793,229.141 297.547 C 229.093 297.301,229.056 297.550,229.057 298.100 M190.866 300.100 C 190.867 300.870,190.903 301.160,190.946 300.746 C 190.989 300.331,190.989 299.701,190.944 299.346 C 190.900 298.990,190.865 299.330,190.866 300.100 M170.464 301.800 C 170.464 302.515,170.500 302.808,170.545 302.450 C 170.589 302.093,170.589 301.507,170.545 301.150 C 170.500 300.793,170.464 301.085,170.464 301.800 M206.650 302.338 C 206.843 302.388,207.157 302.388,207.350 302.338 C 207.543 302.288,207.385 302.246,207.000 302.246 C 206.615 302.246,206.457 302.288,206.650 302.338 M249.860 303.400 C 249.860 304.005,249.897 304.252,249.943 303.950 C 249.989 303.647,249.989 303.153,249.943 302.850 C 249.897 302.548,249.860 302.795,249.860 303.400 M167.264 304.600 C 167.264 305.315,167.300 305.608,167.345 305.250 C 167.389 304.893,167.389 304.308,167.345 303.950 C 167.300 303.593,167.264 303.885,167.264 304.600 M218.066 305.900 C 218.067 306.670,218.103 306.960,218.146 306.546 C 218.189 306.131,218.189 305.501,218.144 305.146 C 218.100 304.790,218.065 305.130,218.066 305.900 M238.650 307.500 C 238.653 307.940,238.694 308.096,238.741 307.848 C 238.789 307.599,238.787 307.239,238.737 307.048 C 238.687 306.856,238.648 307.060,238.650 307.500 M182.277 310.800 C 182.277 312.175,182.309 312.738,182.348 312.050 C 182.387 311.363,182.387 310.238,182.348 309.550 C 182.309 308.863,182.277 309.425,182.277 310.800 M241.854 309.200 C 241.854 309.695,241.893 309.898,241.941 309.650 C 241.989 309.403,241.989 308.998,241.941 308.750 C 241.893 308.503,241.854 308.705,241.854 309.200 M179.077 316.600 C 179.077 317.975,179.109 318.538,179.148 317.850 C 179.187 317.163,179.187 316.038,179.148 315.350 C 179.109 314.663,179.077 315.225,179.077 316.600 M226.066 316.300 C 226.067 317.070,226.103 317.360,226.146 316.946 C 226.189 316.531,226.189 315.901,226.144 315.546 C 226.100 315.190,226.065 315.530,226.066 316.300 M229.254 318.800 C 229.254 319.295,229.293 319.498,229.341 319.250 C 229.389 319.003,229.389 318.598,229.341 318.350 C 229.293 318.103,229.254 318.305,229.254 318.800 M202.836 321.833 C 202.814 322.523,202.702 323.006,202.550 323.068 C 202.354 323.147,202.356 323.172,202.556 323.184 C 202.925 323.207,203.034 322.785,202.948 321.675 L 202.872 320.700 202.836 321.833 " stroke="none" fill="#9b9b9b" fill-rule="evenodd"></path><path id="path3" d="" stroke="none" fill="#7c7c7c" fill-rule="evenodd"></path><path id="path4" d="M198.954 10.345 C 199.313 10.389,199.853 10.389,200.154 10.343 C 200.454 10.297,200.160 10.261,199.500 10.262 C 198.840 10.263,198.594 10.300,198.954 10.345 M207.346 10.344 C 207.701 10.389,208.331 10.389,208.746 10.346 C 209.160 10.303,208.870 10.267,208.100 10.266 C 207.330 10.265,206.990 10.300,207.346 10.344 M193.250 10.538 C 193.442 10.588,193.758 10.588,193.950 10.538 C 194.143 10.488,193.985 10.446,193.600 10.446 C 193.215 10.446,193.058 10.488,193.250 10.538 M213.850 10.538 C 214.043 10.588,214.357 10.588,214.550 10.538 C 214.743 10.488,214.585 10.446,214.200 10.446 C 213.815 10.446,213.657 10.488,213.850 10.538 M97.389 39.750 L 96.700 40.500 97.450 39.811 C 97.863 39.432,98.200 39.094,98.200 39.061 C 98.200 38.908,98.031 39.052,97.389 39.750 M305.600 45.100 C 306.530 46.035,307.336 46.800,307.391 46.800 C 307.446 46.800,306.730 46.035,305.800 45.100 C 304.870 44.165,304.064 43.400,304.009 43.400 C 303.954 43.400,304.670 44.165,305.600 45.100 M101.389 44.350 L 100.700 45.100 101.450 44.411 C 101.863 44.032,102.200 43.694,102.200 43.661 C 102.200 43.508,102.031 43.652,101.389 44.350 M317.470 106.600 C 317.470 107.535,317.504 107.918,317.546 107.450 C 317.589 106.983,317.589 106.218,317.546 105.750 C 317.504 105.283,317.470 105.665,317.470 106.600 M76.654 106.000 C 76.654 106.495,76.693 106.697,76.741 106.450 C 76.789 106.203,76.789 105.797,76.741 105.550 C 76.693 105.303,76.654 105.505,76.654 106.000 M337.846 111.800 C 337.846 112.185,337.888 112.343,337.938 112.150 C 337.988 111.958,337.988 111.642,337.938 111.450 C 337.888 111.258,337.846 111.415,337.846 111.800 M106.846 146.800 C 106.846 147.185,106.888 147.343,106.938 147.150 C 106.988 146.958,106.988 146.643,106.938 146.450 C 106.888 146.258,106.846 146.415,106.846 146.800 M102.046 186.400 C 102.046 186.785,102.088 186.942,102.138 186.750 C 102.188 186.558,102.188 186.243,102.138 186.050 C 102.088 185.858,102.046 186.015,102.046 186.400 M308.060 196.200 C 308.060 196.805,308.097 197.053,308.143 196.750 C 308.189 196.447,308.189 195.953,308.143 195.650 C 308.097 195.347,308.060 195.595,308.060 196.200 M102.046 199.200 C 102.046 199.585,102.088 199.743,102.138 199.550 C 102.188 199.358,102.188 199.043,102.138 198.850 C 102.088 198.658,102.046 198.815,102.046 199.200 M308.054 203.800 C 308.054 204.295,308.093 204.498,308.141 204.250 C 308.189 204.003,308.189 203.597,308.141 203.350 C 308.093 203.103,308.054 203.305,308.054 203.800 M259.253 209.544 C 259.557 209.589,260.007 209.588,260.253 209.541 C 260.499 209.493,260.250 209.456,259.700 209.457 C 259.150 209.459,258.949 209.498,259.253 209.544 M149.150 210.541 C 149.398 210.589,149.803 210.589,150.050 210.541 C 150.297 210.493,150.095 210.454,149.600 210.454 C 149.105 210.454,148.903 210.493,149.150 210.541 M151.152 210.541 C 151.401 210.589,151.761 210.587,151.952 210.537 C 152.144 210.487,151.940 210.448,151.500 210.450 C 151.060 210.453,150.904 210.494,151.152 210.541 M194.287 254.250 L 193.700 254.900 194.350 254.313 C 194.708 253.990,195.000 253.697,195.000 253.663 C 195.000 253.508,194.835 253.644,194.287 254.250 M249.675 281.500 C 249.675 282.710,249.708 283.179,249.748 282.543 C 249.788 281.906,249.787 280.916,249.747 280.343 C 249.707 279.769,249.674 280.290,249.675 281.500 M200.555 280.547 C 201.026 280.589,201.746 280.588,202.155 280.545 C 202.565 280.502,202.180 280.468,201.300 280.469 C 200.420 280.469,200.085 280.504,200.555 280.547 M209.250 280.546 C 209.663 280.589,210.338 280.589,210.750 280.546 C 211.163 280.503,210.825 280.467,210.000 280.467 C 209.175 280.467,208.838 280.503,209.250 280.546 M179.284 286.100 C 179.284 288.300,179.313 289.227,179.349 288.161 C 179.385 287.094,179.385 285.294,179.349 284.161 C 179.314 283.027,179.284 283.900,179.284 286.100 M228.867 283.800 C 228.867 284.625,228.903 284.963,228.946 284.550 C 228.989 284.137,228.989 283.463,228.946 283.050 C 228.903 282.637,228.867 282.975,228.867 283.800 M194.083 286.900 C 194.083 288.880,194.113 289.663,194.149 288.640 C 194.186 287.617,194.185 285.997,194.149 285.040 C 194.112 284.083,194.082 284.920,194.083 286.900 M197.750 283.541 C 197.998 283.589,198.403 283.589,198.650 283.541 C 198.898 283.493,198.695 283.454,198.200 283.454 C 197.705 283.454,197.503 283.493,197.750 283.541 M212.653 283.544 C 212.957 283.589,213.407 283.588,213.653 283.541 C 213.899 283.493,213.650 283.456,213.100 283.457 C 212.550 283.459,212.349 283.498,212.653 283.544 M214.887 288.800 C 214.887 291.605,214.915 292.752,214.949 291.350 C 214.984 289.947,214.984 287.653,214.949 286.250 C 214.915 284.848,214.887 285.995,214.887 288.800 M241.469 286.900 C 241.469 287.780,241.504 288.115,241.547 287.645 C 241.589 287.174,241.588 286.454,241.545 286.045 C 241.502 285.635,241.468 286.020,241.469 286.900 M167.477 289.200 C 167.477 290.575,167.509 291.137,167.548 290.450 C 167.587 289.762,167.587 288.637,167.548 287.950 C 167.509 287.262,167.477 287.825,167.477 289.200 M225.877 290.600 C 225.877 291.975,225.909 292.538,225.948 291.850 C 225.987 291.163,225.987 290.038,225.948 289.350 C 225.909 288.663,225.877 289.225,225.877 290.600 M238.469 291.700 C 238.469 292.580,238.504 292.915,238.547 292.445 C 238.589 291.974,238.588 291.254,238.545 290.845 C 238.502 290.435,238.468 290.820,238.469 291.700 M205.887 296.300 C 205.887 299.160,205.915 300.302,205.950 298.838 C 205.984 297.374,205.984 295.034,205.949 293.638 C 205.915 292.242,205.887 293.440,205.887 296.300 M252.869 293.100 C 252.869 293.980,252.904 294.315,252.947 293.845 C 252.989 293.374,252.988 292.654,252.945 292.245 C 252.902 291.835,252.868 292.220,252.869 293.100 M170.457 295.500 C 170.459 296.050,170.498 296.251,170.544 295.947 C 170.589 295.643,170.588 295.193,170.541 294.947 C 170.493 294.701,170.456 294.950,170.457 295.500 M182.272 298.000 C 182.272 299.045,182.306 299.473,182.347 298.950 C 182.388 298.428,182.388 297.572,182.347 297.050 C 182.306 296.528,182.272 296.955,182.272 298.000 M249.875 299.100 C 249.875 300.310,249.908 300.779,249.948 300.143 C 249.988 299.506,249.987 298.516,249.947 297.943 C 249.907 297.369,249.874 297.890,249.875 299.100 M241.664 299.800 C 241.664 300.515,241.700 300.808,241.745 300.450 C 241.789 300.093,241.789 299.507,241.745 299.150 C 241.700 298.793,241.664 299.085,241.664 299.800 M156.050 302.300 C 156.053 302.740,156.094 302.896,156.141 302.648 C 156.189 302.399,156.187 302.039,156.137 301.848 C 156.087 301.656,156.048 301.860,156.050 302.300 M199.050 302.338 C 199.243 302.388,199.558 302.388,199.750 302.338 C 199.942 302.288,199.785 302.246,199.400 302.246 C 199.015 302.246,198.858 302.288,199.050 302.338 M229.071 304.100 C 229.070 305.090,229.104 305.520,229.146 305.056 C 229.188 304.592,229.189 303.782,229.147 303.256 C 229.106 302.730,229.072 303.110,229.071 304.100 M182.283 303.272 C 182.225 303.422,182.207 304.075,182.242 304.722 L 182.306 305.900 182.403 304.450 C 182.500 302.994,182.477 302.766,182.283 303.272 M238.667 304.400 C 238.667 305.225,238.703 305.563,238.746 305.150 C 238.789 304.738,238.789 304.063,238.746 303.650 C 238.703 303.238,238.667 303.575,238.667 304.400 M156.079 306.700 C 156.079 308.240,156.111 308.844,156.149 308.041 C 156.187 307.239,156.186 305.979,156.148 305.241 C 156.110 304.504,156.079 305.160,156.079 306.700 M259.287 305.850 L 258.700 306.500 259.350 305.913 C 259.956 305.365,260.092 305.200,259.937 305.200 C 259.903 305.200,259.610 305.493,259.287 305.850 M190.887 311.400 C 190.887 314.205,190.915 315.353,190.949 313.950 C 190.984 312.548,190.984 310.253,190.949 308.850 C 190.915 307.447,190.887 308.595,190.887 311.400 M167.277 309.400 C 167.277 310.775,167.309 311.338,167.348 310.650 C 167.387 309.963,167.387 308.838,167.348 308.150 C 167.309 307.463,167.277 308.025,167.277 309.400 M257.287 307.850 L 256.700 308.500 257.350 307.913 C 257.956 307.365,258.092 307.200,257.937 307.200 C 257.903 307.200,257.610 307.493,257.287 307.850 M202.887 312.900 C 202.887 315.760,202.915 316.902,202.950 315.438 C 202.984 313.974,202.984 311.634,202.949 310.238 C 202.915 308.842,202.887 310.040,202.887 312.900 M226.077 311.400 C 226.077 312.775,226.109 313.338,226.148 312.650 C 226.187 311.963,226.187 310.838,226.148 310.150 C 226.109 309.463,226.077 310.025,226.077 311.400 M218.087 314.600 C 218.087 317.405,218.115 318.553,218.149 317.150 C 218.184 315.748,218.184 313.453,218.149 312.050 C 218.115 310.648,218.087 311.795,218.087 314.600 M241.869 312.300 C 241.869 313.180,241.904 313.515,241.947 313.045 C 241.989 312.574,241.988 311.854,241.945 311.445 C 241.902 311.035,241.868 311.420,241.869 312.300 M170.262 315.900 C 170.263 316.560,170.300 316.806,170.345 316.446 C 170.389 316.087,170.389 315.547,170.343 315.246 C 170.297 314.946,170.261 315.240,170.262 315.900 M200.550 323.141 C 200.798 323.189,201.203 323.189,201.450 323.141 C 201.697 323.093,201.495 323.054,201.000 323.054 C 200.505 323.054,200.303 323.093,200.550 323.141 M206.950 323.141 C 207.197 323.189,207.603 323.189,207.850 323.141 C 208.097 323.093,207.895 323.054,207.400 323.054 C 206.905 323.054,206.703 323.093,206.950 323.141 M201.650 359.149 C 202.503 359.186,203.898 359.186,204.750 359.149 C 205.603 359.111,204.905 359.080,203.200 359.080 C 201.495 359.080,200.798 359.111,201.650 359.149 " stroke="none" fill="#747474" fill-rule="evenodd"></path><path id="path5" d="M311.254 106.600 C 311.254 107.095,311.293 107.297,311.341 107.050 C 311.389 106.803,311.389 106.397,311.341 106.150 C 311.293 105.903,311.254 106.105,311.254 106.600 M207.497 223.200 C 207.497 235.905,207.521 241.103,207.550 234.750 C 207.579 228.398,207.579 218.003,207.550 211.650 C 207.521 205.298,207.497 210.495,207.497 223.200 M265.600 248.100 C 265.114 248.595,264.762 249.000,264.817 249.000 C 264.872 249.000,265.314 248.595,265.800 248.100 C 266.286 247.605,266.638 247.200,266.583 247.200 C 266.528 247.200,266.086 247.605,265.600 248.100 M167.446 282.600 C 167.446 282.985,167.488 283.143,167.538 282.950 C 167.588 282.757,167.588 282.443,167.538 282.250 C 167.488 282.058,167.446 282.215,167.446 282.600 M170.646 283.400 C 170.646 283.785,170.688 283.943,170.738 283.750 C 170.788 283.558,170.788 283.243,170.738 283.050 C 170.688 282.858,170.646 283.015,170.646 283.400 M202.646 284.400 C 202.646 284.785,202.688 284.943,202.738 284.750 C 202.788 284.558,202.788 284.243,202.738 284.050 C 202.688 283.858,202.646 284.015,202.646 284.400 M229.046 296.600 C 229.046 296.985,229.088 297.143,229.138 296.950 C 229.188 296.757,229.188 296.443,229.138 296.250 C 229.088 296.058,229.046 296.215,229.046 296.600 M190.866 297.500 C 190.867 298.270,190.903 298.560,190.946 298.146 C 190.989 297.731,190.989 297.101,190.944 296.746 C 190.900 296.390,190.865 296.730,190.866 297.500 M225.850 297.500 C 225.853 297.940,225.894 298.096,225.941 297.848 C 225.989 297.599,225.987 297.239,225.937 297.048 C 225.887 296.856,225.848 297.060,225.850 297.500 M194.064 299.200 C 194.064 299.915,194.100 300.207,194.145 299.850 C 194.189 299.493,194.189 298.907,194.145 298.550 C 194.100 298.193,194.064 298.485,194.064 299.200 M218.054 300.400 C 218.054 300.895,218.093 301.098,218.141 300.850 C 218.189 300.603,218.189 300.197,218.141 299.950 C 218.093 299.703,218.054 299.905,218.054 300.400 M167.246 302.800 C 167.246 303.185,167.288 303.343,167.338 303.150 C 167.388 302.957,167.388 302.643,167.338 302.450 C 167.288 302.257,167.246 302.415,167.246 302.800 M170.446 303.600 C 170.446 303.985,170.488 304.143,170.538 303.950 C 170.588 303.757,170.588 303.443,170.538 303.250 C 170.488 303.058,170.446 303.215,170.446 303.600 M249.846 305.000 C 249.846 305.385,249.888 305.543,249.938 305.350 C 249.988 305.157,249.988 304.843,249.938 304.650 C 249.888 304.457,249.846 304.615,249.846 305.000 M149.200 307.663 C 149.200 307.697,149.493 307.990,149.850 308.313 L 150.500 308.900 149.913 308.250 C 149.365 307.644,149.200 307.508,149.200 307.663 M179.066 312.900 C 179.067 313.670,179.103 313.960,179.146 313.546 C 179.189 313.131,179.189 312.501,179.144 312.146 C 179.100 311.790,179.065 312.130,179.066 312.900 M182.266 314.500 C 182.267 315.270,182.303 315.560,182.346 315.146 C 182.389 314.731,182.389 314.101,182.344 313.746 C 182.300 313.390,182.265 313.730,182.266 314.500 M229.250 317.300 C 229.253 317.740,229.294 317.896,229.341 317.648 C 229.389 317.399,229.387 317.039,229.337 316.848 C 229.287 316.656,229.248 316.860,229.250 317.300 M226.046 318.200 C 226.046 318.585,226.088 318.743,226.138 318.550 C 226.188 318.358,226.188 318.043,226.138 317.850 C 226.088 317.658,226.046 317.815,226.046 318.200 M203.554 326.345 C 203.913 326.389,204.453 326.389,204.754 326.343 C 205.054 326.297,204.760 326.261,204.100 326.262 C 203.440 326.263,203.194 326.300,203.554 326.345 " stroke="none" fill="#bcbcbc" fill-rule="evenodd"></path><path id="path6" d="M167.446 281.400 C 167.446 281.785,167.488 281.943,167.538 281.750 C 167.588 281.558,167.588 281.243,167.538 281.050 C 167.488 280.858,167.446 281.015,167.446 281.400 M170.646 284.600 C 170.646 284.985,170.688 285.143,170.738 284.950 C 170.788 284.757,170.788 284.443,170.738 284.250 C 170.688 284.058,170.646 284.215,170.646 284.600 M202.666 286.300 C 202.667 287.070,202.703 287.360,202.746 286.946 C 202.789 286.531,202.789 285.901,202.744 285.546 C 202.700 285.190,202.665 285.530,202.666 286.300 M190.864 295.000 C 190.864 295.715,190.900 296.007,190.945 295.650 C 190.989 295.293,190.989 294.707,190.945 294.350 C 190.900 293.993,190.864 294.285,190.864 295.000 M229.046 295.400 C 229.046 295.785,229.088 295.943,229.138 295.750 C 229.188 295.558,229.188 295.243,229.138 295.050 C 229.088 294.858,229.046 295.015,229.046 295.400 M218.064 298.400 C 218.064 299.115,218.100 299.407,218.145 299.050 C 218.189 298.693,218.189 298.108,218.145 297.750 C 218.100 297.393,218.064 297.685,218.064 298.400 M194.050 301.100 C 194.053 301.540,194.094 301.696,194.141 301.448 C 194.189 301.199,194.187 300.839,194.137 300.648 C 194.087 300.456,194.048 300.660,194.050 301.100 M167.246 301.600 C 167.246 301.985,167.288 302.143,167.338 301.950 C 167.388 301.757,167.388 301.443,167.338 301.250 C 167.288 301.058,167.246 301.215,167.246 301.600 M170.446 304.800 C 170.446 305.185,170.488 305.343,170.538 305.150 C 170.588 304.957,170.588 304.643,170.538 304.450 C 170.488 304.257,170.446 304.415,170.446 304.800 M214.846 305.600 C 214.846 305.985,214.888 306.143,214.938 305.950 C 214.988 305.757,214.988 305.443,214.938 305.250 C 214.888 305.058,214.846 305.215,214.846 305.600 M179.062 310.500 C 179.063 311.160,179.100 311.406,179.145 311.046 C 179.189 310.687,179.189 310.147,179.143 309.846 C 179.097 309.546,179.061 309.840,179.062 310.500 M182.262 316.900 C 182.263 317.560,182.300 317.806,182.345 317.446 C 182.389 317.087,182.389 316.547,182.343 316.246 C 182.297 315.946,182.261 316.240,182.262 316.900 M226.046 319.400 C 226.046 319.785,226.088 319.943,226.138 319.750 C 226.188 319.558,226.188 319.243,226.138 319.050 C 226.088 318.858,226.046 319.015,226.046 319.400 M206.050 322.300 C 206.053 322.740,206.094 322.896,206.141 322.648 C 206.189 322.399,206.187 322.039,206.137 321.848 C 206.087 321.656,206.048 321.860,206.050 322.300 " stroke="none" fill="#c4c4c4" fill-rule="evenodd"></path><path id="path7" d="M331.654 107.000 C 331.654 107.495,331.693 107.697,331.741 107.450 C 331.789 107.203,331.789 106.797,331.741 106.550 C 331.693 106.303,331.654 106.505,331.654 107.000 M98.671 109.900 C 98.670 110.890,98.704 111.320,98.746 110.856 C 98.788 110.392,98.789 109.582,98.747 109.056 C 98.706 108.530,98.672 108.910,98.671 109.900 M331.657 109.700 C 331.659 110.250,331.698 110.451,331.744 110.147 C 331.789 109.843,331.788 109.393,331.741 109.147 C 331.693 108.901,331.656 109.150,331.657 109.700 M303.446 145.600 C 303.446 145.985,303.488 146.143,303.538 145.950 C 303.588 145.758,303.588 145.442,303.538 145.250 C 303.488 145.058,303.446 145.215,303.446 145.600 M303.454 147.200 C 303.454 147.695,303.493 147.898,303.541 147.650 C 303.589 147.403,303.589 146.998,303.541 146.750 C 303.493 146.503,303.454 146.705,303.454 147.200 M155.152 148.941 C 155.401 148.989,155.761 148.987,155.952 148.937 C 156.144 148.887,155.940 148.848,155.500 148.850 C 155.060 148.853,154.904 148.894,155.152 148.941 M157.750 148.941 C 157.998 148.989,158.403 148.989,158.650 148.941 C 158.898 148.893,158.695 148.854,158.200 148.854 C 157.705 148.854,157.503 148.893,157.750 148.941 M290.064 171.000 C 290.064 171.715,290.100 172.008,290.145 171.650 C 290.189 171.293,290.189 170.708,290.145 170.350 C 290.100 169.993,290.064 170.285,290.064 171.000 M102.050 189.500 C 102.053 189.940,102.094 190.096,102.141 189.848 C 102.189 189.599,102.187 189.239,102.137 189.048 C 102.087 188.856,102.048 189.060,102.050 189.500 M102.046 196.400 C 102.046 196.785,102.088 196.942,102.138 196.750 C 102.188 196.558,102.188 196.243,102.138 196.050 C 102.088 195.858,102.046 196.015,102.046 196.400 M219.450 257.338 C 219.643 257.388,219.957 257.388,220.150 257.338 C 220.343 257.288,220.185 257.246,219.800 257.246 C 219.415 257.246,219.257 257.288,219.450 257.338 M241.446 281.000 C 241.446 281.385,241.488 281.543,241.538 281.350 C 241.588 281.157,241.588 280.843,241.538 280.650 C 241.488 280.457,241.446 280.615,241.446 281.000 M206.750 283.746 C 207.218 283.789,207.982 283.789,208.450 283.746 C 208.918 283.704,208.535 283.670,207.600 283.670 C 206.665 283.670,206.282 283.704,206.750 283.746 M238.254 285.000 C 238.254 285.495,238.293 285.697,238.341 285.450 C 238.389 285.203,238.389 284.798,238.341 284.550 C 238.293 284.303,238.254 284.505,238.254 285.000 M170.664 286.400 C 170.664 287.115,170.700 287.407,170.745 287.050 C 170.789 286.693,170.789 286.108,170.745 285.750 C 170.700 285.393,170.664 285.685,170.664 286.400 M202.678 290.100 C 202.678 291.530,202.710 292.089,202.748 291.342 C 202.787 290.595,202.787 289.425,202.748 288.742 C 202.709 288.059,202.677 288.670,202.678 290.100 M249.660 289.800 C 249.660 290.405,249.697 290.653,249.743 290.350 C 249.789 290.048,249.789 289.553,249.743 289.250 C 249.697 288.947,249.660 289.195,249.660 289.800 M190.877 291.400 C 190.877 292.775,190.909 293.338,190.948 292.650 C 190.987 291.963,190.987 290.838,190.948 290.150 C 190.909 289.463,190.877 290.025,190.877 291.400 M218.077 294.800 C 218.077 296.175,218.109 296.738,218.148 296.050 C 218.187 295.363,218.187 294.238,218.148 293.550 C 218.109 292.863,218.077 293.425,218.077 294.800 M229.064 293.600 C 229.064 294.315,229.100 294.608,229.145 294.250 C 229.189 293.893,229.189 293.308,229.145 292.950 C 229.100 292.593,229.064 292.885,229.064 293.600 M241.650 293.500 C 241.653 293.940,241.694 294.096,241.741 293.848 C 241.789 293.599,241.787 293.239,241.737 293.048 C 241.687 292.856,241.648 293.060,241.650 293.500 M167.262 299.900 C 167.263 300.560,167.300 300.806,167.345 300.446 C 167.389 300.087,167.389 299.547,167.343 299.246 C 167.297 298.946,167.261 299.240,167.262 299.900 M201.850 302.338 C 202.043 302.388,202.358 302.388,202.550 302.338 C 202.743 302.288,202.585 302.246,202.200 302.246 C 201.815 302.246,201.658 302.288,201.850 302.338 M179.078 306.900 C 179.078 308.330,179.110 308.889,179.148 308.142 C 179.187 307.395,179.187 306.225,179.148 305.542 C 179.109 304.859,179.077 305.470,179.078 306.900 M194.039 306.450 L 194.077 307.900 194.149 306.605 C 194.189 305.893,194.329 305.242,194.461 305.158 C 194.623 305.055,194.587 305.005,194.350 305.003 C 194.045 305.000,194.005 305.187,194.039 306.450 M170.464 306.600 C 170.464 307.315,170.500 307.608,170.545 307.250 C 170.589 306.893,170.589 306.308,170.545 305.950 C 170.500 305.593,170.464 305.885,170.464 306.600 M241.850 306.300 C 241.853 306.740,241.894 306.896,241.941 306.648 C 241.989 306.399,241.987 306.039,241.937 305.848 C 241.887 305.656,241.848 305.860,241.850 306.300 M214.878 308.700 C 214.878 310.130,214.910 310.689,214.948 309.942 C 214.987 309.195,214.987 308.025,214.948 307.342 C 214.909 306.659,214.877 307.270,214.878 308.700 M249.860 307.600 C 249.860 308.205,249.897 308.453,249.943 308.150 C 249.989 307.848,249.989 307.353,249.943 307.050 C 249.897 306.748,249.860 306.995,249.860 307.600 M238.650 310.500 C 238.653 310.940,238.694 311.096,238.741 310.848 C 238.789 310.599,238.787 310.239,238.737 310.048 C 238.687 309.856,238.648 310.060,238.650 310.500 M229.264 314.400 C 229.264 315.115,229.300 315.408,229.345 315.050 C 229.389 314.693,229.389 314.108,229.345 313.750 C 229.300 313.393,229.264 313.685,229.264 314.400 M206.078 319.100 C 206.078 320.530,206.110 321.089,206.148 320.342 C 206.187 319.595,206.187 318.425,206.148 317.742 C 206.109 317.059,206.077 317.670,206.078 319.100 M182.266 319.300 C 182.267 320.070,182.303 320.360,182.346 319.946 C 182.389 319.531,182.389 318.901,182.344 318.546 C 182.300 318.190,182.265 318.530,182.266 319.300 M201.952 326.341 C 202.201 326.389,202.561 326.387,202.752 326.337 C 202.944 326.287,202.740 326.248,202.300 326.250 C 201.860 326.253,201.704 326.294,201.952 326.341 M205.752 326.341 C 206.001 326.389,206.361 326.387,206.552 326.337 C 206.744 326.287,206.540 326.248,206.100 326.250 C 205.660 326.253,205.504 326.294,205.752 326.341 M263.193 335.950 L 262.100 337.100 263.250 336.007 C 264.318 334.991,264.492 334.800,264.343 334.800 C 264.312 334.800,263.794 335.318,263.193 335.950 " stroke="none" fill="#d1d1d1" fill-rule="evenodd"></path><path id="path8" d="M252.552 147.941 C 252.801 147.989,253.161 147.987,253.352 147.937 C 253.544 147.887,253.340 147.848,252.900 147.850 C 252.460 147.853,252.304 147.894,252.552 147.941 M203.050 280.538 C 203.243 280.588,203.558 280.588,203.750 280.538 C 203.942 280.488,203.785 280.446,203.400 280.446 C 203.015 280.446,202.858 280.488,203.050 280.538 M207.350 280.541 C 207.597 280.589,208.003 280.589,208.250 280.541 C 208.498 280.493,208.295 280.454,207.800 280.454 C 207.305 280.454,207.103 280.493,207.350 280.541 M167.446 286.200 C 167.446 286.585,167.488 286.743,167.538 286.550 C 167.588 286.358,167.588 286.043,167.538 285.850 C 167.488 285.657,167.446 285.815,167.446 286.200 M205.864 289.800 C 205.864 290.515,205.900 290.808,205.945 290.450 C 205.989 290.093,205.989 289.507,205.945 289.150 C 205.900 288.793,205.864 289.085,205.864 289.800 M194.066 291.700 C 194.067 292.470,194.103 292.760,194.146 292.346 C 194.189 291.931,194.189 291.301,194.144 290.946 C 194.100 290.590,194.065 290.930,194.066 291.700 M225.846 293.800 C 225.846 294.185,225.888 294.343,225.938 294.150 C 225.988 293.957,225.988 293.643,225.938 293.450 C 225.888 293.257,225.846 293.415,225.846 293.800 M214.864 295.000 C 214.864 295.715,214.900 296.007,214.945 295.650 C 214.989 295.293,214.989 294.707,214.945 294.350 C 214.900 293.993,214.864 294.285,214.864 295.000 M190.854 305.600 C 190.854 306.095,190.893 306.298,190.941 306.050 C 190.989 305.803,190.989 305.397,190.941 305.150 C 190.893 304.903,190.854 305.105,190.854 305.600 M167.246 306.400 C 167.246 306.785,167.288 306.943,167.338 306.750 C 167.388 306.558,167.388 306.243,167.338 306.050 C 167.288 305.858,167.246 306.015,167.246 306.400 M182.264 307.200 C 182.264 307.915,182.300 308.207,182.345 307.850 C 182.389 307.493,182.389 306.907,182.345 306.550 C 182.300 306.193,182.264 306.485,182.264 307.200 M218.064 308.400 C 218.064 309.115,218.100 309.408,218.145 309.050 C 218.189 308.693,218.189 308.108,218.145 307.750 C 218.100 307.393,218.064 307.685,218.064 308.400 M226.046 314.400 C 226.046 314.785,226.088 314.943,226.138 314.750 C 226.188 314.558,226.188 314.243,226.138 314.050 C 226.088 313.858,226.046 314.015,226.046 314.400 M202.866 319.500 C 202.867 320.270,202.903 320.560,202.946 320.146 C 202.989 319.731,202.989 319.101,202.944 318.746 C 202.900 318.390,202.865 318.730,202.866 319.500 " stroke="none" fill="#7c847c" fill-rule="evenodd"></path></g></svg>